<?xml version="1.0" standalone="no"?>
<!DOCTYPE svg PUBLIC "-//W3C//DTD SVG 20010904//EN"
 "http://www.w3.org/TR/2001/REC-SVG-20010904/DTD/svg10.dtd">
<svg version="1.0" xmlns="http://www.w3.org/2000/svg"
 width="500.000000pt" height="500.000000pt" viewBox="0 0 500.000000 500.000000"
 preserveAspectRatio="xMidYMid meet">
<metadata>
Created by potrace 1.14, written by Peter Selinger 2001-2017
</metadata>
<g transform="translate(0.000000,500.000000) scale(0.100000,-0.100000)"
fill="#000000" stroke="none">
<path d="M620 3434 c-52 -21 -90 -83 -83 -137 5 -45 15 -66 56 -109 14 -16 21
-28 14 -29 -7 0 -88 -1 -181 -2 l-168 -2 -2 -82 -1 -83 55 -1 c327 -3 420 0
448 15 43 22 75 71 75 114 0 70 -3 79 -43 125 l-40 45 52 4 c29 1 73 2 98 0
l45 -3 -1 -149 -1 -150 61 -1 c67 -1 99 1 105 7 3 2 5 69 5 149 l0 145 96 0
96 0 1 80 1 80 -326 -1 c-264 0 -334 -3 -362 -15z"/>
<path d="M1363 3423 c-6 -16 -15 -44 -21 -63 -6 -19 -24 -80 -41 -135 -16 -55
-39 -129 -49 -165 l-20 -65 37 -5 c20 -3 59 -3 88 -2 48 4 53 6 62 35 11 32
11 32 80 32 69 0 69 0 82 -32 7 -18 19 -33 26 -34 7 0 42 0 78 0 88 0 87 0 80
11 -3 5 -8 18 -10 27 -4 24 -33 116 -56 181 -10 28 -16 52 -13 52 4 0 2 6 -4
13 -10 13 -26 74 -20 80 2 2 -2 10 -8 18 -7 8 -15 29 -19 47 l-7 32 -128 0
-128 0 -9 -27z m155 -234 c-5 -4 -18 -4 -28 -2 -19 5 -19 10 3 67 l11 29 12
-44 c9 -30 10 -45 2 -50z"/>
<path d="M1784 3221 l0 -230 65 -3 c119 -6 120 -5 123 60 l3 56 43 -42 c72
-70 74 -71 217 -72 72 -1 142 -1 157 -1 l28 1 -1 84 -1 84 -101 0 c-156 1
-147 -2 -109 30 79 66 56 198 -42 243 -35 16 -67 19 -211 19 l-171 0 0 -229z
m299 83 c3 -4 2 -14 -3 -23 -6 -13 -20 -17 -52 -15 -59 2 -57 2 -55 24 1 17 8
20 52 20 29 0 55 -3 58 -6z"/>
<path d="M2510 3438 c0 -7 27 -101 61 -208 33 -107 62 -203 64 -214 3 -10 6
-20 8 -22 7 -8 149 -6 156 2 11 13 42 99 44 123 3 38 13 22 35 -53 l22 -74 42
-3 c24 -2 61 -2 82 1 l39 5 24 80 c13 44 26 87 28 96 2 8 10 32 19 52 8 20 13
37 12 37 -2 0 9 41 24 91 21 68 25 91 16 95 -7 3 -48 4 -91 2 l-79 -3 -11 -42
c-10 -42 -24 -66 -26 -45 -3 21 -4 27 -18 60 l-14 33 -95 -3 -95 -3 -15 -50
-15 -50 -15 53 -15 52 -93 0 c-69 0 -94 -3 -94 -12z"/>
<path d="M3238 3362 c-14 -48 -36 -121 -48 -162 -12 -41 -24 -82 -27 -90 -8
-18 -7 -15 -22 -69 -7 -23 -11 -44 -9 -46 4 -4 79 -7 130 -6 33 1 40 5 51 34
14 32 14 32 83 31 37 0 69 -5 71 -10 20 -56 25 -58 107 -57 43 1 80 4 83 6 2
2 -3 24 -11 49 -9 24 -17 53 -19 64 -2 10 -9 32 -15 47 -7 16 -12 31 -12 34 0
4 -18 64 -41 135 l-40 128 -127 0 -127 0 -27 -88z m183 -144 c13 -25 12 -25
-21 -30 -34 -5 -35 -2 -18 55 11 38 12 39 21 16 5 -13 13 -32 18 -41z"/>
<path d="M3689 3438 c0 -7 -2 -111 -2 -230 l-2 -217 77 -3 c112 -4 114 -3 113
60 0 28 2 52 5 52 3 0 24 -18 45 -41 67 -68 72 -70 293 -70 163 0 206 3 240
16 23 10 42 23 42 31 0 8 4 14 9 14 9 0 20 28 26 65 6 38 -16 96 -52 136 l-35
39 73 1 c41 1 91 1 111 1 l36 0 0 79 0 79 -147 0 c-159 0 -202 -8 -243 -43
-57 -50 -56 -133 4 -209 17 -21 26 -38 21 -39 -41 -5 -206 -3 -209 3 -2 3 9
20 26 36 16 17 30 36 31 44 1 22 7 50 12 54 7 8 -17 68 -38 95 -38 48 -89 59
-270 59 -125 0 -165 -3 -166 -12z m298 -146 c8 -20 -13 -30 -59 -28 -38 2 -63
20 -51 38 8 15 104 6 110 -10z"/>
<path d="M4551 3021 c16 -13 26 -16 31 -8 9 15 6 17 -28 23 l-27 5 24 -20z"/>
<path d="M88 2652 c48 -65 114 -155 147 -201 33 -46 65 -89 70 -95 6 -6 21
-28 35 -48 14 -21 28 -38 33 -38 4 0 7 -5 7 -11 0 -6 16 -30 36 -54 l36 -44
-59 -81 c-32 -44 -61 -80 -65 -80 -5 0 -8 -4 -8 -10 0 -5 -70 -104 -155 -220
-85 -115 -155 -212 -155 -215 0 -3 139 -5 309 -5 l308 0 84 126 83 126 27 -31
c14 -17 32 -44 40 -59 8 -15 22 -36 32 -46 9 -11 17 -25 17 -32 0 -7 4 -14 8
-16 4 -1 18 -18 31 -35 l22 -33 310 0 309 0 -17 27 c-10 16 -24 35 -30 43 -30
37 -206 278 -221 303 -9 15 -20 27 -24 27 -4 0 -8 6 -8 13 0 9 44 12 189 11
134 -1 191 2 194 10 2 6 3 37 3 68 -1 31 2 54 5 50 5 -6 52 -153 63 -197 1 -5
17 -57 35 -115 l33 -105 183 0 c102 1 188 4 192 8 4 4 8 13 9 20 2 7 7 26 12
42 l9 30 8 -30 c14 -59 16 -63 33 -67 26 -5 360 -3 366 3 3 3 8 16 10 30 2 13
5 24 6 24 1 0 3 8 5 18 2 9 20 84 40 165 36 142 43 173 49 199 9 44 11 -5 11
-200 -1 -122 0 -226 2 -232 2 -6 138 -9 386 -9 210 1 387 2 393 3 7 1 11 24
10 67 l-2 66 25 -29 c15 -17 40 -47 57 -68 l31 -39 187 0 186 -1 1 35 c1 19 1
70 1 113 l0 77 31 -39 c37 -46 78 -80 127 -107 19 -10 38 -23 42 -29 4 -5 8
-7 8 -2 0 4 12 1 28 -6 15 -8 45 -18 67 -22 22 -4 51 -9 65 -12 32 -7 509 -10
520 -3 4 3 7 142 7 311 0 168 3 310 6 316 4 7 4 14 0 16 -5 3 -7 71 -7 151 2
143 1 146 -20 147 -11 0 -124 0 -251 0 -275 -1 -325 -8 -452 -68 -53 -25 -167
-125 -156 -137 3 -3 1 -6 -5 -6 -7 0 -10 33 -9 105 l2 105 -50 1 c-71 0 -228
0 -306 0 l-67 -1 2 -65 c1 -36 0 -65 -3 -65 -3 1 -28 30 -56 65 -49 64 -50 65
-100 65 -60 1 -875 1 -957 0 -53 0 -58 -2 -59 -22 0 -13 -4 -32 -9 -43 -7 -18
-9 -18 -20 10 -7 17 -13 36 -14 44 -3 13 -4 13 -302 11 l-61 0 -17 -62 -18
-63 -19 63 c-18 56 -22 62 -47 63 -30 0 -320 0 -369 -1 l-32 0 19 -55 c10 -30
16 -55 13 -55 -3 0 -1 -6 4 -12 9 -11 37 -102 38 -120 0 -3 3 -10 8 -14 4 -4
7 -15 7 -25 0 -16 -14 -17 -165 -17 -151 0 -164 1 -156 16 17 31 130 187 159
217 6 8 12 16 12 20 0 3 22 34 48 68 27 34 56 74 66 90 l18 27 -311 0 -311 0
-82 -125 c-46 -68 -86 -125 -91 -125 -4 0 -44 56 -89 125 l-81 125 -313 0
-314 0 88 -118z m4417 -559 c-4 -11 -14 -13 -37 -8 -47 10 -64 29 -66 73 -3
46 18 69 68 74 l35 3 3 -64 c2 -35 1 -70 -3 -78z m-3303 61 c0 -31 -3 -58 -5
-60 -3 -3 -15 11 -27 30 l-22 36 22 30 c12 17 25 29 28 26 3 -4 5 -31 4 -62z"/>
<path d="M4971 2604 c-1 -12 5 -21 14 -21 9 0 15 9 15 21 0 16 -2 18 -9 7 -7
-11 -9 -11 -14 0 -3 9 -6 6 -6 -7z"/>
</g>
</svg>
